<svg width="27" height="23" viewBox="0 0 27 23" fill="none" xmlns="http://www.w3.org/2000/svg">
<path d="M24.2239 0.84668H2.47876C1.95447 0.84668 1.45165 1.05495 1.08092 1.42568C0.710196 1.79641 0.501923 2.29922 0.501923 2.82351V20.615C0.501923 21.1393 0.710196 21.6421 1.08092 22.0129C1.45165 22.3836 1.95447 22.5919 2.47876 22.5919H4.13312C4.32019 22.5919 4.50343 22.5389 4.66155 22.4389C4.81968 22.339 4.9462 22.1962 5.0264 22.0272C5.50704 21.0125 6.26589 20.155 7.21469 19.5545C8.16349 18.9541 9.26326 18.6353 10.3861 18.6353C11.5089 18.6353 12.6087 18.9541 13.5575 19.5545C14.5063 20.155 15.2651 21.0125 15.7458 22.0272C15.826 22.1962 15.9525 22.339 16.1106 22.4389C16.2688 22.5389 16.452 22.5919 16.6391 22.5919H24.2239C24.7482 22.5919 25.251 22.3836 25.6218 22.0129C25.9925 21.6421 26.2008 21.1393 26.2008 20.615V2.82351C26.2008 2.29922 25.9925 1.79641 25.6218 1.42568C25.251 1.05495 24.7482 0.84668 24.2239 0.84668ZM10.3861 16.6614C9.60413 16.6614 8.83973 16.4295 8.18955 15.995C7.53938 15.5606 7.03262 14.9431 6.73338 14.2207C6.43414 13.4982 6.35584 12.7033 6.50839 11.9364C6.66095 11.1694 7.0375 10.4649 7.59043 9.91202C8.14336 9.35909 8.84783 8.98254 9.61477 8.82998C10.3817 8.67743 11.1767 8.75573 11.8991 9.05497C12.6215 9.35421 13.239 9.86097 13.6734 10.5111C14.1079 11.1613 14.3398 11.9257 14.3398 12.7077C14.3398 13.7563 13.9232 14.7619 13.1818 15.5033C12.4403 16.2448 11.4347 16.6614 10.3861 16.6614ZM24.2239 20.615H17.2346C16.8036 19.8721 16.2544 19.2045 15.6086 18.6382H21.2587C21.5208 18.6382 21.7722 18.5341 21.9576 18.3487C22.143 18.1633 22.2471 17.9119 22.2471 17.6498V5.78876C22.2471 5.52662 22.143 5.27521 21.9576 5.08985C21.7722 4.90448 21.5208 4.80035 21.2587 4.80035H5.44401C5.18186 4.80035 4.93046 4.90448 4.74509 5.08985C4.55973 5.27521 4.45559 5.52662 4.45559 5.78876V17.6498C4.45548 17.869 4.52825 18.082 4.66244 18.2553C4.79664 18.4287 4.98465 18.5525 5.1969 18.6073C4.53613 19.1797 3.97535 19.8583 3.5376 20.615H2.47876V2.82351H24.2239V20.615Z" fill="white"/>
</svg>
