<svg width="42" height="28" viewBox="0 0 42 28" fill="none" xmlns="http://www.w3.org/2000/svg">
<path d="M3.3 27.0332H38.7C40.5 27.0332 42 25.5332 42 23.5832V3.3332C42 1.5332 40.5 0.0332031 38.55 0.0332031H3.3C1.5 0.0332031 0 1.5332 0 3.3332V23.7332C0 25.5332 1.5 27.0332 3.3 27.0332ZM18.8925 24.0332C18.447 24.0332 18 23.7422 18 23.1632V20.4032C18 19.9682 18.297 19.5332 18.8925 19.5332H36.6075C37.053 19.5332 37.5 19.8242 37.5 20.4032V23.1632C37.5 23.5982 37.053 24.0332 36.6075 24.0332H18.8925ZM18.75 4.5332H36.75C36.9489 4.5332 37.1397 4.61222 37.2803 4.75287C37.421 4.89352 37.5 5.08429 37.5 5.2832C37.5 5.48212 37.421 5.67288 37.2803 5.81353C37.1397 5.95419 36.9489 6.0332 36.75 6.0332H18.75C18.5511 6.0332 18.3603 5.95419 18.2197 5.81353C18.079 5.67288 18 5.48212 18 5.2832C18 5.08429 18.079 4.89352 18.2197 4.75287C18.3603 4.61222 18.5511 4.5332 18.75 4.5332ZM18 9.7832C18 9.58429 18.079 9.39353 18.2197 9.25287C18.3603 9.11222 18.5511 9.0332 18.75 9.0332H36.75C36.9489 9.0332 37.1397 9.11222 37.2803 9.25287C37.421 9.39353 37.5 9.58429 37.5 9.7832C37.5 9.98212 37.421 10.1729 37.2803 10.3135C37.1397 10.4542 36.9489 10.5332 36.75 10.5332H18.75C18.5511 10.5332 18.3603 10.4542 18.2197 10.3135C18.079 10.1729 18 9.98212 18 9.7832ZM18 14.2832C18 14.0843 18.079 13.8935 18.2197 13.7529C18.3603 13.6122 18.5511 13.5332 18.75 13.5332H36.75C36.9489 13.5332 37.1397 13.6122 37.2803 13.7529C37.421 13.8935 37.5 14.0843 37.5 14.2832C37.5 14.4821 37.421 14.6729 37.2803 14.8135C37.1397 14.9542 36.9489 15.0332 36.75 15.0332H18.75C18.5511 15.0332 18.3603 14.9542 18.2197 14.8135C18.079 14.6729 18 14.4821 18 14.2832ZM3.027 16.8287C3.00826 16.7313 2.99921 16.6324 3 16.5332V4.5332C3 3.7832 3.585 3.0332 4.464 3.0332H13.536C14.268 3.0332 15 3.6332 15 4.5332V16.4987C13.9286 14.9868 12.3227 13.9385 10.5075 13.5662C11.3535 13.2392 11.9535 12.4667 12.063 11.4362L12.1335 10.5137C12.3987 10.4888 12.6446 10.3646 12.8221 10.166C12.9996 9.96735 13.0955 9.70901 13.0905 9.4427C13.0943 9.2044 13.018 8.97172 12.8738 8.7819C12.7297 8.59208 12.5261 8.4561 12.2955 8.3957L12.3555 7.6007C12.5055 5.9132 11.184 4.5332 9.7155 4.5332H8.2455C6.6315 4.5332 5.4555 5.9132 5.6025 7.6007L5.6625 8.3957C5.43194 8.4561 5.22831 8.59208 5.08417 8.7819C4.94004 8.97172 4.86375 9.2044 4.8675 9.4427C4.8675 10.0112 5.2905 10.4762 5.826 10.5137L5.8965 11.4362C6.012 12.4007 6.672 13.2707 7.5915 13.5992C5.697 14.0192 4.0725 15.2042 3.027 16.8287Z" fill="white"/>
</svg>
