<svg width="40" height="33" viewBox="0 0 40 33" fill="none" xmlns="http://www.w3.org/2000/svg">
<path d="M24 18.0332H34V14.0332H24V18.0332ZM24 12.0332H34V8.0332H24V12.0332ZM6 24.0332H22V22.9332C22 21.4332 21.2667 20.2419 19.8 19.3592C18.3333 18.4765 16.4 18.0345 14 18.0332C11.6 18.0319 9.66667 18.4739 8.2 19.3592C6.73333 20.2445 6 21.4359 6 22.9332V24.0332ZM14 16.0332C15.1 16.0332 16.042 15.6419 16.826 14.8592C17.61 14.0765 18.0013 13.1345 18 12.0332C17.9987 10.9319 17.6073 9.99054 16.826 9.2092C16.0447 8.42787 15.1027 8.03587 14 8.0332C12.8973 8.03054 11.956 8.42254 11.176 9.2092C10.396 9.99587 10.004 10.9372 10 12.0332C9.996 13.1292 10.388 14.0712 11.176 14.8592C11.964 15.6472 12.9053 16.0385 14 16.0332ZM4 32.0332C2.9 32.0332 1.95867 31.6419 1.176 30.8592C0.393333 30.0765 0.00133333 29.1345 0 28.0332V4.0332C0 2.9332 0.392 1.99187 1.176 1.2092C1.96 0.426536 2.90133 0.0345365 4 0.0332031H36C37.1 0.0332031 38.042 0.425203 38.826 1.2092C39.61 1.9932 40.0013 2.93454 40 4.0332V28.0332C40 29.1332 39.6087 30.0752 38.826 30.8592C38.0433 31.6432 37.1013 32.0345 36 32.0332H4Z" fill="white"/>
</svg>
