<svg width="32" height="30" viewBox="0 0 32 30" fill="none" xmlns="http://www.w3.org/2000/svg">
<path d="M-4.9495e-06 8.87831H32V1.80231C32 1.49431 31.872 1.21231 31.616 0.956312C31.36 0.700312 31.078 0.571646 30.77 0.570312H1.22999C0.923328 0.570312 0.641328 0.698312 0.383995 0.954312C0.126662 1.21031 -0.00133828 1.49231 -4.9495e-06 1.80031V8.87831ZM-4.9495e-06 19.1863H32V10.8783H-4.9495e-06V19.1863ZM1.22999 29.4943H30.77C31.0767 29.4943 31.3587 29.3656 31.616 29.1083C31.8733 28.851 32.0013 28.569 32 28.2623V21.1863H-4.9495e-06V28.2643C-4.9495e-06 28.571 0.127995 28.853 0.383995 29.1103C0.639995 29.3676 0.921995 29.4956 1.22999 29.4943ZM3.53999 6.34031V3.11031H6.77V6.34031H3.53999ZM3.53999 16.6483V13.4163H6.77V16.6483H3.53999ZM3.53999 26.9563V23.7243H6.77V26.9563H3.53999Z" fill="white"/>
</svg>
