<svg width="32" height="27" viewBox="0 0 32 27" fill="none" xmlns="http://www.w3.org/2000/svg">
<path fill-rule="evenodd" clip-rule="evenodd" d="M26.7297 3.57658H17.834V23.3449H22.776C23.1693 23.3449 23.5464 23.5011 23.8244 23.7792C24.1025 24.0572 24.2587 24.4343 24.2587 24.8275C24.2587 25.2208 24.1025 25.5979 23.8244 25.8759C23.5464 26.154 23.1693 26.3102 22.776 26.3102H9.92662C9.5334 26.3102 9.15629 26.154 8.87825 25.8759C8.6002 25.5979 8.44399 25.2208 8.44399 24.8275C8.44399 24.4343 8.6002 24.0572 8.87825 23.7792C9.15629 23.5011 9.5334 23.3449 9.92662 23.3449H14.8687V3.57658H5.97295C5.57974 3.57658 5.20262 3.42037 4.92458 3.14233C4.64653 2.86428 4.49033 2.48717 4.49033 2.09395C4.49033 1.70074 4.64653 1.32363 4.92458 1.04558C5.20262 0.767533 5.57974 0.611328 5.97295 0.611328H26.7297C27.1229 0.611328 27.5 0.767533 27.7781 1.04558C28.0561 1.32363 28.2123 1.70074 28.2123 2.09395C28.2123 2.48717 28.0561 2.86428 27.7781 3.14233C27.5 3.42037 27.1229 3.57658 26.7297 3.57658ZM3.7846 14.5836L3.79843 14.6192C4.01179 15.1525 4.38006 15.6097 4.85575 15.9318C5.33143 16.2538 5.89271 16.426 6.46716 16.426C7.04161 16.426 7.60289 16.2538 8.07857 15.9318C8.55426 15.6097 8.92254 15.1525 9.13589 14.6192L9.14972 14.5836L6.46716 9.21846L3.7846 14.5836ZM6.46716 5.55341C5.55782 5.55341 4.72755 6.06739 4.3223 6.87789L0.932025 13.6565C0.807082 13.9063 0.736492 14.1797 0.724907 14.4588C0.713322 14.7378 0.761004 15.0162 0.864813 15.2755L1.04273 15.7222C1.47599 16.8062 2.22418 17.7354 3.19074 18.39C4.15729 19.0446 5.29784 19.3944 6.46518 19.3944C7.63253 19.3944 8.77308 19.0446 9.73963 18.39C10.7062 17.7354 11.4544 16.8062 11.8876 15.7222L12.0656 15.2755C12.1694 15.0162 12.217 14.7378 12.2055 14.4588C12.1939 14.1797 12.1233 13.9063 11.9983 13.6565L8.61203 6.87987C8.41354 6.48094 8.10757 6.14538 7.7286 5.91101C7.34964 5.67665 6.91274 5.55279 6.46716 5.55341ZM23.5529 14.5836L23.5668 14.6192C23.7801 15.1525 24.1484 15.6097 24.6241 15.9318C25.0998 16.2538 25.661 16.426 26.2355 16.426C26.81 16.426 27.3712 16.2538 27.8469 15.9318C28.3226 15.6097 28.6909 15.1525 28.9042 14.6192L28.9181 14.5836L26.2355 9.21846L23.5529 14.5836ZM26.2355 5.55341C25.3262 5.55341 24.4959 6.06739 24.0906 6.87789L20.7004 13.6565C20.5754 13.9063 20.5048 14.1797 20.4932 14.4588C20.4817 14.7378 20.5293 15.0162 20.6332 15.2755L20.8111 15.7222C21.2443 16.8062 21.9925 17.7354 22.9591 18.39C23.9256 19.0446 25.0662 19.3944 26.2335 19.3944C27.4009 19.3944 28.5414 19.0446 29.508 18.39C30.4745 17.7354 31.2227 16.8062 31.656 15.7222L31.8339 15.2755C31.9377 15.0162 31.9854 14.7378 31.9738 14.4588C31.9622 14.1797 31.8916 13.9063 31.7667 13.6565L28.3784 6.88185C28.1803 6.48285 27.8748 6.14708 27.4962 5.91237C27.1176 5.67767 26.681 5.55335 26.2355 5.55341Z" fill="white"/>
</svg>
