<svg width="25" height="25" viewBox="0 0 25 25" fill="none" xmlns="http://www.w3.org/2000/svg">
<path d="M7.40928 9.82483C7.14713 9.82483 6.89572 9.92897 6.71036 10.1143C6.52499 10.2997 6.42086 10.5511 6.42086 10.8133C6.42086 11.0754 6.52499 11.3268 6.71036 11.5122C6.89572 11.6975 7.14713 11.8017 7.40928 11.8017C7.67142 11.8017 7.92283 11.6975 8.10819 11.5122C8.29356 11.3268 8.39769 11.0754 8.39769 10.8133C8.39769 10.5511 8.29356 10.2997 8.10819 10.1143C7.92283 9.92897 7.67142 9.82483 7.40928 9.82483ZM6.42086 18.0616C6.42086 17.7995 6.52499 17.5481 6.71036 17.3627C6.89572 17.1774 7.14713 17.0732 7.40928 17.0732C7.67142 17.0732 7.92283 17.1774 8.10819 17.3627C8.29356 17.5481 8.39769 17.7995 8.39769 18.0616C8.39769 18.3238 8.29356 18.5752 8.10819 18.7606C7.92283 18.9459 7.67142 19.0501 7.40928 19.0501C7.14713 19.0501 6.89572 18.9459 6.71036 18.7606C6.52499 18.5752 6.42086 18.3238 6.42086 18.0616ZM0.490356 4.88275C0.490356 3.74679 0.941614 2.65736 1.74486 1.85411C2.5481 1.05087 3.63754 0.599609 4.7735 0.599609H19.9292C21.0652 0.599609 22.1546 1.05087 22.9579 1.85411C23.7611 2.65736 24.2124 3.74679 24.2124 4.88275V20.0385C24.2124 21.1744 23.7611 22.2639 22.9579 23.0671C22.1546 23.8704 21.0652 24.3216 19.9292 24.3216H4.7735C3.63754 24.3216 2.5481 23.8704 1.74486 23.0671C0.941614 22.2639 0.490356 21.1744 0.490356 20.0385V4.88275ZM4.44402 10.8133C4.44402 11.2027 4.52072 11.5882 4.66974 11.948C4.81876 12.3078 5.03718 12.6347 5.31253 12.91C5.58788 13.1853 5.91476 13.4038 6.27452 13.5528C6.63428 13.7018 7.01987 13.7785 7.40928 13.7785C7.79868 13.7785 8.18427 13.7018 8.54403 13.5528C8.90379 13.4038 9.23068 13.1853 9.50602 12.91C9.78137 12.6347 9.99979 12.3078 10.1488 11.948C10.2978 11.5882 10.3745 11.2027 10.3745 10.8133C10.3745 10.0268 10.0621 9.2726 9.50602 8.7165C8.94993 8.16041 8.19571 7.848 7.40928 7.848C6.62284 7.848 5.86862 8.16041 5.31253 8.7165C4.75643 9.2726 4.44402 10.0268 4.44402 10.8133ZM7.40928 15.0964C6.62284 15.0964 5.86862 15.4088 5.31253 15.9649C4.75643 16.521 4.44402 17.2752 4.44402 18.0616C4.44402 18.8481 4.75643 19.6023 5.31253 20.1584C5.86862 20.7145 6.62284 21.0269 7.40928 21.0269C8.19571 21.0269 8.94993 20.7145 9.50602 20.1584C10.0621 19.6023 10.3745 18.8481 10.3745 18.0616C10.3745 17.2752 10.0621 16.521 9.50602 15.9649C8.94993 15.4088 8.19571 15.0964 7.40928 15.0964ZM12.3514 10.8133C12.3514 11.3589 12.7942 11.8017 13.3398 11.8017H19.2703C19.5324 11.8017 19.7838 11.6975 19.9692 11.5122C20.1546 11.3268 20.2587 11.0754 20.2587 10.8133C20.2587 10.5511 20.1546 10.2997 19.9692 10.1143C19.7838 9.92897 19.5324 9.82483 19.2703 9.82483H13.3398C13.0776 9.82483 12.8262 9.92897 12.6409 10.1143C12.4555 10.2997 12.3514 10.5511 12.3514 10.8133ZM13.3398 17.0732C13.0776 17.0732 12.8262 17.1774 12.6409 17.3627C12.4555 17.5481 12.3514 17.7995 12.3514 18.0616C12.3514 18.3238 12.4555 18.5752 12.6409 18.7606C12.8262 18.9459 13.0776 19.0501 13.3398 19.0501H19.2703C19.5324 19.0501 19.7838 18.9459 19.9692 18.7606C20.1546 18.5752 20.2587 18.3238 20.2587 18.0616C20.2587 17.7995 20.1546 17.5481 19.9692 17.3627C19.7838 17.1774 19.5324 17.0732 19.2703 17.0732H13.3398ZM4.44402 4.88275C4.44402 5.42836 4.88684 5.87117 5.43244 5.87117H19.2703C19.5324 5.87117 19.7838 5.76703 19.9692 5.58167C20.1546 5.3963 20.2587 5.14489 20.2587 4.88275C20.2587 4.62061 20.1546 4.3692 19.9692 4.18383C19.7838 3.99847 19.5324 3.89433 19.2703 3.89433H5.43244C5.1703 3.89433 4.91889 3.99847 4.73352 4.18383C4.54816 4.3692 4.44402 4.62061 4.44402 4.88275Z" fill="white"/>
</svg>
