<svg width="26" height="27" viewBox="0 0 26 27" fill="none" xmlns="http://www.w3.org/2000/svg">
<path d="M9.57529 24.7637V20.7339C9.57529 19.7052 10.4153 18.8713 11.4515 18.8713H15.2394C15.737 18.8713 16.2142 19.0676 16.566 19.4169C16.9179 19.7662 17.1156 20.2399 17.1156 20.7339V24.7637C17.1124 25.1913 17.2814 25.6025 17.5849 25.906C17.8884 26.2096 18.3014 26.3802 18.7322 26.3802H21.3164C22.5234 26.3833 23.6819 25.9096 24.5365 25.0634C25.391 24.2173 25.8713 23.0684 25.8713 21.8702V10.3901C25.8713 9.42226 25.4391 8.50419 24.6913 7.88323L15.9002 0.913182C14.3709 -0.308907 12.1799 -0.269449 10.6963 1.0069L2.10581 7.88323C1.32262 8.48588 0.854522 9.40667 0.83139 10.3901V21.8585C0.83139 24.3558 2.87067 26.3802 5.38624 26.3802H7.91147C8.80624 26.3802 9.53341 25.6636 9.53989 24.7754L9.57529 24.7637Z" fill="white"/>
</svg>
