<svg width="19" height="20" viewBox="0 0 19 20" fill="none" xmlns="http://www.w3.org/2000/svg">
<path d="M2.375 6.90723C2.375 4.69809 4.16586 2.90723 6.375 2.90723L12.625 2.90723C14.8341 2.90723 16.625 4.69809 16.625 6.90723L16.625 13.1572C16.625 15.3664 14.8341 17.1572 12.625 17.1572L6.375 17.1572C4.16586 17.1572 2.375 15.3664 2.375 13.1572L2.375 6.90723Z" stroke="#D2EFFF" stroke-width="2"/>
<path d="M2.375 12.4072L4.243 10.5392C5.12533 9.6569 6.5913 9.78908 7.30158 10.815L8.26644 12.2086C8.93112 13.1687 10.2735 13.3575 11.1773 12.6181L12.4533 11.5741C13.2486 10.9234 14.4075 10.9813 15.134 11.7078L16.625 13.1989" stroke="#D2EFFF" stroke-width="2"/>
<circle cx="12.6667" cy="6.86556" r="1.58333" fill="#D2EFFF"/>
</svg>
