<svg width="43" height="43" viewBox="0 0 43 43" fill="none" xmlns="http://www.w3.org/2000/svg">
<path d="M20.3746 39.4655V31.7527H12.947C14.6299 36.1397 17.314 39.1004 20.3746 39.4655Z" fill="#0A97FF"/>
<path d="M12.4964 30.4719H20.3747V27.5425H11.7405C11.9487 28.5636 12.1997 29.5449 12.4964 30.4719Z" fill="#0A97FF"/>
<path d="M11.7317 14.5299H20.3744V11.5577H12.4961C12.1966 12.4962 11.9428 13.4917 11.7317 14.5299Z" fill="#0A97FF"/>
<path d="M29.046 7.17645C29.5737 8.13485 30.0415 9.17597 30.4437 10.277H36.06C33.6184 6.86839 30.0529 4.32121 25.9055 3.18311C27.0636 4.16718 28.1247 5.5078 29.046 7.17645Z" fill="#0A97FF"/>
<path d="M12.947 10.2772H20.3746V2.56433C17.3169 2.92944 14.6328 5.89021 12.947 10.2772Z" fill="#0A97FF"/>
<path d="M12.9869 34.8561C12.4592 33.8977 11.9914 32.8566 11.5893 31.7527H5.9729C8.41454 35.1613 11.98 37.7113 16.1274 38.8466C14.9693 37.8625 13.9082 36.5219 12.9869 34.8532V34.8561Z" fill="#0A97FF"/>
<path d="M12.9869 7.17645C13.9082 5.5078 14.9693 4.16718 16.1274 3.18311C11.98 4.32121 8.41454 6.86839 5.9729 10.277H11.5893C11.9914 9.17312 12.4564 8.132 12.9869 7.17645Z" fill="#0A97FF"/>
<path d="M11.1616 11.5605H5.12876C4.56684 12.499 4.08763 13.4945 3.69971 14.5327H10.4285C10.6282 13.5087 10.8706 12.5132 11.1616 11.5605Z" fill="#0A97FF"/>
<path d="M10.4369 27.5425H3.71387C4.10179 28.5636 4.57529 29.5449 5.12865 30.4719H11.1615C10.8734 29.5335 10.6338 28.5522 10.4369 27.5425Z" fill="#0A97FF"/>
<path d="M30.8684 30.4719H36.9012C37.4546 29.5449 37.9281 28.5636 38.316 27.5425H31.5929C31.3961 28.5522 31.1565 29.5335 30.8684 30.4719Z" fill="#0A97FF"/>
<path d="M30.8684 11.5605C31.1594 12.5132 31.4018 13.5087 31.6015 14.5327H38.3303C37.9395 13.4945 37.4603 12.5018 36.9012 11.5605H30.8684Z" fill="#0A97FF"/>
<path d="M29.046 34.8562C28.1247 36.5248 27.0636 37.8654 25.9055 38.8495C30.0529 37.7114 33.6184 35.1642 36.06 31.7556H30.4437C30.0415 32.8595 29.5765 33.9006 29.046 34.859V34.8562Z" fill="#0A97FF"/>
<path d="M21.6582 31.7527V39.4655C24.716 39.1004 27.4001 36.1397 29.0858 31.7527H21.6582Z" fill="#0A97FF"/>
<path d="M30.2924 27.5425H21.6582V30.4719H29.5365C29.8332 29.5449 30.0842 28.5636 30.2924 27.5425Z" fill="#0A97FF"/>
<path d="M29.5365 11.5605H21.6582V14.5327H30.3009C30.0927 13.4973 29.8389 12.5018 29.5365 11.5605Z" fill="#0A97FF"/>
<path d="M21.6582 2.56433V10.2772H29.0858C27.4029 5.89021 24.7188 2.92944 21.6582 2.56433Z" fill="#0A97FF"/>
<path d="M41.0088 14.5301C38.2762 6.09841 30.3608 0 21.0164 0C11.672 0 3.75945 6.09841 1.02401 14.5301C0.362257 16.5724 0 18.7516 0 21.0164C0 23.2812 0.367962 25.4889 1.03827 27.5427C3.78512 35.9543 11.6891 42.0328 21.0164 42.0328C30.3437 42.0328 38.2477 35.9543 40.9945 27.5427C41.6648 25.4861 42.0328 23.2954 42.0328 21.0164C42.0328 18.7373 41.6705 16.5752 41.0088 14.5301ZM21.0164 40.792C12.3993 40.792 5.05443 35.2498 2.35322 27.5427C1.63727 25.4975 1.24079 23.3012 1.24079 21.0164C1.24079 18.7316 1.63157 16.5638 2.33896 14.5301C5.02876 6.80295 12.3851 1.23793 21.0164 1.23793C29.6477 1.23793 37.004 6.80009 39.6938 14.5301C40.4012 16.5638 40.792 18.743 40.792 21.0164C40.792 23.2897 40.3984 25.4975 39.6796 27.5427C36.9755 35.2498 29.6335 40.792 21.0164 40.792Z" fill="white"/>
<path d="M21.069 12.8969C21.069 12.8969 14.597 7.34951 8.125 11.9724V32.3129C14.597 27.69 21.069 32.3129 21.069 32.3129C21.069 32.3129 27.5409 27.69 34.0129 32.3129V11.9724C27.5409 7.34951 21.069 12.8969 21.069 12.8969ZM21.069 12.8969V32.3129Z" fill="#0A97FF"/>
<path d="M21.069 12.8969C21.069 12.8969 14.597 7.34951 8.125 11.9724V32.3129C14.597 27.69 21.069 32.3129 21.069 32.3129M21.069 12.8969C21.069 12.8969 27.5409 7.34951 34.0129 11.9724V32.3129C27.5409 27.69 21.069 32.3129 21.069 32.3129M21.069 12.8969V32.3129" stroke="white" stroke-width="1.84914" stroke-linecap="round" stroke-linejoin="round"/>
</svg>
