<svg width="28" height="27" viewBox="0 0 28 27" fill="none" xmlns="http://www.w3.org/2000/svg">
<path d="M12.6828 0.470703C15.9546 0.470703 18.6229 3.0933 18.6229 6.32213V12.6348H10.5777C10.0011 12.6348 9.54518 13.0829 9.54518 13.6496C9.54518 14.2031 10.0011 14.6644 10.5777 14.6644H18.6229V20.9639C18.6229 24.1927 15.9546 26.8285 12.656 26.8285H6.12594C2.8408 26.8285 0.172455 24.2059 0.172455 20.9771V6.33531C0.172455 3.0933 2.85421 0.470703 6.13935 0.470703H12.6828ZM21.9706 9.10314C22.366 8.6946 23.0117 8.6946 23.4071 9.08996L27.2553 12.925C27.453 13.1227 27.5585 13.3731 27.5585 13.6499C27.5585 13.9134 27.453 14.177 27.2553 14.3615L23.4071 18.1966C23.2094 18.3943 22.9458 18.4997 22.6954 18.4997C22.4319 18.4997 22.1683 18.3943 21.9706 18.1966C21.5752 17.8012 21.5752 17.1554 21.9706 16.7601L24.0792 14.6646H18.6232V12.6351H24.0792L21.9706 10.5396C21.5752 10.1443 21.5752 9.49851 21.9706 9.10314Z" fill="white"/>
</svg>
