<svg width="27" height="26" viewBox="0 0 27 26" fill="none" xmlns="http://www.w3.org/2000/svg">
<path d="M21.2587 0.599854C22.6568 0.599854 23.9976 1.15525 24.9862 2.14386C25.9748 3.13247 26.5302 4.47331 26.5302 5.87141V16.4145C26.5302 17.8126 25.9748 19.1535 24.9862 20.1421C23.9976 21.1307 22.6568 21.6861 21.2587 21.6861H15.033L8.75719 25.4513C8.56819 25.5647 8.35376 25.6289 8.13353 25.638C7.91329 25.6471 7.69429 25.6009 7.49657 25.5035C7.29885 25.406 7.12871 25.2606 7.00175 25.0804C6.87478 24.9002 6.79504 24.6911 6.76981 24.4721L6.7619 24.3219V21.6861H5.44401C4.09154 21.6861 2.7908 21.1663 1.81084 20.2341C0.830878 19.302 0.246668 18.0289 0.179044 16.6781L0.172455 16.4145V5.87141C0.172455 4.47331 0.72785 3.13247 1.71646 2.14386C2.70507 1.15525 4.04591 0.599854 5.44401 0.599854H21.2587ZM15.9871 12.4609H8.07979C7.73026 12.4609 7.39505 12.5997 7.1479 12.8469C6.90075 13.094 6.7619 13.4292 6.7619 13.7787C6.7619 14.1283 6.90075 14.4635 7.1479 14.7106C7.39505 14.9578 7.73026 15.0966 8.07979 15.0966H15.9871C16.3367 15.0966 16.6719 14.9578 16.919 14.7106C17.1662 14.4635 17.305 14.1283 17.305 13.7787C17.305 13.4292 17.1662 13.094 16.919 12.8469C16.6719 12.5997 16.3367 12.4609 15.9871 12.4609ZM18.6229 7.1893H8.07979C7.73026 7.1893 7.39505 7.32815 7.1479 7.5753C6.90075 7.82245 6.7619 8.15766 6.7619 8.50719C6.7619 8.85672 6.90075 9.19193 7.1479 9.43908C7.39505 9.68623 7.73026 9.82508 8.07979 9.82508H18.6229C18.9724 9.82508 19.3076 9.68623 19.5548 9.43908C19.8019 9.19193 19.9408 8.85672 19.9408 8.50719C19.9408 8.15766 19.8019 7.82245 19.5548 7.5753C19.3076 7.32815 18.9724 7.1893 18.6229 7.1893Z" fill="white"/>
</svg>
