<svg width="30" height="30" viewBox="0 0 30 30" fill="none" xmlns="http://www.w3.org/2000/svg">
<path fill-rule="evenodd" clip-rule="evenodd" d="M20.6229 11.5284C20.6229 12.9265 20.0675 14.2673 19.0789 15.2559C18.0903 16.2446 16.7495 16.8 15.3514 16.8C13.9533 16.8 12.6124 16.2446 11.6238 15.2559C10.6352 14.2673 10.0798 12.9265 10.0798 11.5284C10.0798 10.1303 10.6352 8.78945 11.6238 7.80084C12.6124 6.81223 13.9533 6.25684 15.3514 6.25684C16.7495 6.25684 18.0903 6.81223 19.0789 7.80084C20.0675 8.78945 20.6229 10.1303 20.6229 11.5284ZM17.9871 11.5284C17.9871 12.2274 17.7094 12.8979 17.2151 13.3922C16.7208 13.8865 16.0504 14.1642 15.3514 14.1642C14.6523 14.1642 13.9819 13.8865 13.4876 13.3922C12.9933 12.8979 12.7156 12.2274 12.7156 11.5284C12.7156 10.8293 12.9933 10.1589 13.4876 9.66462C13.9819 9.17031 14.6523 8.89261 15.3514 8.89261C16.0504 8.89261 16.7208 9.17031 17.2151 9.66462C17.7094 10.1589 17.9871 10.8293 17.9871 11.5284Z" fill="white"/>
<path fill-rule="evenodd" clip-rule="evenodd" d="M15.3514 0.985352C7.34519 0.985352 0.854584 7.47596 0.854584 15.4821C0.854584 23.4883 7.34519 29.9789 15.3514 29.9789C23.3575 29.9789 29.8481 23.4883 29.8481 15.4821C29.8481 7.47596 23.3575 0.985352 15.3514 0.985352ZM3.49036 15.4821C3.49036 18.2365 4.43002 20.7721 6.0049 22.7859C7.11119 21.3337 8.53808 20.1569 10.1742 19.3471C11.8104 18.5374 13.6115 18.1167 15.437 18.1179C17.2391 18.1158 19.0178 18.5253 20.6376 19.3151C22.2574 20.1048 23.6754 21.2541 24.7835 22.6752C25.9254 21.1775 26.6942 19.4295 27.0264 17.5757C27.3586 15.7219 27.2446 13.8157 26.6938 12.0147C26.143 10.2138 25.1712 8.56987 23.859 7.21902C22.5467 5.86817 20.9316 4.84922 19.1474 4.24648C17.3631 3.64374 15.461 3.47454 13.5984 3.75288C11.7358 4.03122 9.9662 4.7491 8.4361 5.84712C6.906 6.94513 5.65936 8.39172 4.79933 10.0672C3.9393 11.7427 3.4906 13.5988 3.49036 15.4821ZM15.3514 27.3431C12.6285 27.3476 9.98775 26.4108 7.8763 24.6915C8.72609 23.4746 9.85734 22.4811 11.1738 21.7954C12.4902 21.1098 13.9528 20.7524 15.437 20.7537C16.9028 20.7524 18.3476 21.1009 19.6516 21.7702C20.9556 22.4395 22.0811 23.4103 22.9345 24.6019C20.8067 26.3771 18.1224 27.3475 15.3514 27.3431Z" fill="white"/>
</svg>
